<svg width="250" height="75" viewBox="0 0 250 75" fill="none" xmlns="http://www.w3.org/2000/svg">
<g clip-path="url(#clip0_102_21)">
<path d="M250 0H0V75H250V0Z" fill="#1947A0"/>
<path d="M21.4864 60.3814L15.9884 14.8729H24.4565L27.1739 41.3772L30.5865 14.9365H37.2851L40.8873 41.25L43.6047 14.8729H52.0096L46.5116 60.3814H37.7907L33.9358 32.9238L30.3337 60.3814H21.4864Z" fill="white"/>
<path d="M70.9049 60.3814V14.8729H80.8898V33.4958L88.4732 14.8729H98.2684L89.8635 35.4026L98.6476 60.3814H88.4732L81.9641 40.2967L80.8898 42.0763V60.3814H70.9049Z" fill="white"/>
<path d="M115.584 61.017C112.108 61.017 109.391 60.445 107.432 59.3009C105.473 58.1568 104.082 56.5043 103.324 54.2797C102.566 52.1187 102.123 49.3856 102.123 46.2077V14.8729H111.982V47.7967C111.982 48.75 112.045 49.6399 112.235 50.5933C112.361 51.5467 112.74 52.3094 113.183 52.8814C113.688 53.4534 114.446 53.7712 115.521 53.7712C116.595 53.7712 117.353 53.4534 117.859 52.8814C118.365 52.3094 118.68 51.5467 118.807 50.5933C118.933 49.6399 118.996 48.75 118.996 47.7967V14.8729H128.918V46.2712C128.918 49.4492 128.539 52.1187 127.717 54.3433C126.896 56.5043 125.569 58.2204 123.61 59.3645C121.714 60.445 118.996 61.017 115.584 61.017Z" fill="white"/>
<path d="M148.319 61.017C144.906 61.017 142.189 60.3814 140.167 59.1102C138.145 57.839 136.754 56.1229 135.933 53.8348C135.111 51.5466 134.732 48.8771 134.732 45.8263V29.4915C134.732 26.3771 135.111 23.6441 135.933 21.3559C136.754 19.0678 138.145 17.3517 140.167 16.0805C142.189 14.8729 144.843 14.2373 148.319 14.2373C151.668 14.2373 154.259 14.8093 156.155 15.8898C158.051 16.9704 159.378 18.5593 160.137 20.5297C160.895 22.5 161.337 24.7882 161.337 27.3941V31.3348H151.542V26.7585C151.542 25.8687 151.479 24.9788 151.416 24.1526C151.352 23.3263 151.036 22.6271 150.594 22.1187C150.152 21.5466 149.393 21.2924 148.319 21.2924C147.245 21.2924 146.486 21.5466 145.981 22.1187C145.475 22.6907 145.159 23.3898 145.033 24.2161C144.906 25.0424 144.843 25.9322 144.843 26.8856V48.3051C144.843 49.3221 144.906 50.2119 145.096 51.1017C145.286 51.928 145.602 52.6271 146.107 53.1356C146.613 53.6441 147.371 53.8983 148.319 53.8983C149.33 53.8983 150.088 53.6441 150.531 53.0721C150.973 52.5 151.226 51.8009 151.352 50.9746C151.479 50.0848 151.542 49.2585 151.542 48.3051V43.5382H161.337V47.4788C161.337 50.0848 160.958 52.3729 160.2 54.4068C159.441 56.4407 158.114 58.0297 156.218 59.2373C154.323 60.4449 151.668 61.017 148.319 61.017Z" fill="white"/>
<path d="M166.962 60.3814V14.8729H176.946V33.3051H183.898V14.8729H194.009V60.3814H183.898V40.4873H176.946V60.3814H166.962Z" fill="white"/>
<path d="M193.44 60.3814V14.8729H200.455L209.745 36.8009V14.8729H218.023V60.3814H211.261L201.972 36.8009V60.3814H193.44Z" fill="white"/>
<path d="M224.848 60.3814V14.8729H234.833V60.3814H224.848Z" fill="white"/>
<path d="M194.211 15.1081C193.914 15.4831 193.27 16.678 192.878 17.5615C191.115 21.5784 189.889 27.909 189.345 35.8602C189.13 39.0064 189.004 43.5445 189.124 43.8242C189.175 43.945 189.276 43.9831 189.655 44.0339C190.097 44.0911 191.045 44.3835 191.172 44.5106C191.311 44.6505 191.532 44.5679 191.848 44.2501C192.53 43.5636 193.87 42.7564 194.925 42.4005C195.279 42.2797 195.595 42.2352 195.93 42.2479C196.196 42.267 196.436 42.2607 196.455 42.2416C196.556 42.1399 196.594 35.5996 196.505 32.2882C196.335 25.6208 195.905 20.7649 195.178 17.3645C194.938 16.2585 194.584 14.981 194.496 14.8857C194.451 14.8348 194.369 14.8984 194.211 15.1081Z" fill="#1947A0"/>
<path d="M196.101 41.4915C195.469 41.2182 193.485 42.1462 192.347 43.2521C191.816 43.767 191.81 43.7924 191.968 44.3771C192.265 45.4449 192.202 46.6398 191.759 48.4576C191.393 49.964 191.405 50.2246 191.892 51.6992C192.398 53.2373 192.492 53.7076 192.48 54.5212C192.461 55.5763 192.113 56.3835 191.279 57.3178C190.761 57.9089 190.723 58.017 190.957 58.4238C191.424 59.2437 193.105 60.2924 194.098 60.3623C194.995 60.4259 195.324 59.8475 195.816 57.3178C196.398 54.2542 196.689 50.1992 196.613 46.017C196.575 44.0085 196.461 42.0826 196.373 41.7839C196.322 41.5996 196.297 41.5741 196.101 41.4915ZM194.761 58.3475C195.033 59.0021 194.433 59.6886 193.775 59.4534C193.478 59.3453 193.409 59.2691 193.276 58.9703C193.162 58.697 193.238 58.2839 193.44 58.0805C193.636 57.8835 194.047 57.8009 194.312 57.9089C194.597 58.0233 194.641 58.0615 194.761 58.3475Z" fill="#1947A0"/>
</g>
<defs>
<clipPath id="clip0_102_21">
<rect width="250" height="75" fill="white"/>
</clipPath>
</defs>
</svg>
