<?xml version="1.0" encoding="utf-8"?>
<!-- Generator: Adobe Illustrator 24.0.3, SVG Export Plug-In . SVG Version: 6.00 Build 0)  -->
<svg version="1.1" id="Warstwa_1" xmlns="http://www.w3.org/2000/svg" xmlns:xlink="http://www.w3.org/1999/xlink" x="0px" y="0px"
	 viewBox="0 0 395.6 118" style="enable-background:new 0 0 395.6 118;" xml:space="preserve">
<style type="text/css">
	.Dodaj_x0020_cień{fill:none;}
	.Blask_x0020_zewnętrzny_x0020__x0028_5_x0020_pkt_x002E__x0029_{fill:none;}
	.Niebieski_x0020_neon{fill:none;stroke:#8AACDA;stroke-width:7;stroke-linecap:round;stroke-linejoin:round;}
	.Podświetlenie_x0020_Chrom{fill:url(#SVGID_1_);stroke:#FFFFFF;stroke-width:0.3629;stroke-miterlimit:1;}
	.Jive_GS{fill:#FFDD00;}
	.Alyssa_GS{fill:#A6D0E4;}
	.st0{fill:#FEEFE9;}
	.st1{fill:#542657;}
	.st2{fill:#F58257;}
</style>
<linearGradient id="SVGID_1_" gradientUnits="userSpaceOnUse" x1="0" y1="-141.2215" x2="6.123234e-17" y2="-142.2215">
	<stop  offset="0" style="stop-color:#656565"/>
	<stop  offset="0.618" style="stop-color:#1B1B1B"/>
	<stop  offset="0.6292" style="stop-color:#545454"/>
	<stop  offset="0.9831" style="stop-color:#3E3E3E"/>
</linearGradient>
<g>
	<g>
		<rect class="st0" width="395.6" height="118"/>
	</g>
	<g>
		<g>
			<path class="st1" d="M34,95l-8.7-71.6h13.4L43,65.1l5.4-41.6H59l5.7,41.4l4.3-41.5h13.3L73.6,95H59.8l-6.1-43.2L48,95H34z"/>
			<path class="st1" d="M112.2,95V23.4H128v29.3l12-29.3h15.5l-13.3,32.3L156.1,95H140l-10.3-31.6l-1.7,2.8V95H112.2z"/>
			<path class="st1" d="M182.9,96c-5.5,0-9.8-0.9-12.9-2.7c-3.1-1.8-5.3-4.4-6.5-7.9c-1.2-3.4-1.9-7.7-1.9-12.7V23.4h15.6v51.8
				c0,1.5,0.1,2.9,0.4,4.4c0.2,1.5,0.8,2.7,1.5,3.6c0.8,0.9,2,1.4,3.7,1.4c1.7,0,2.9-0.5,3.7-1.4c0.8-0.9,1.3-2.1,1.5-3.6
				c0.2-1.5,0.3-2.9,0.3-4.4V23.4h15.7v49.4c0,5-0.6,9.2-1.9,12.7c-1.3,3.4-3.4,6.1-6.5,7.9C192.6,95.1,188.3,96,182.9,96z"/>
			<path class="st1" d="M234.7,96c-5.4,0-9.7-1-12.9-3c-3.2-2-5.4-4.7-6.7-8.3c-1.3-3.6-1.9-7.8-1.9-12.6V46.4
				c0-4.9,0.6-9.2,1.9-12.8c1.3-3.6,3.5-6.3,6.7-8.3c3.2-1.9,7.4-2.9,12.9-2.9c5.3,0,9.4,0.9,12.4,2.6c3,1.7,5.1,4.2,6.3,7.3
				c1.2,3.1,1.9,6.7,1.9,10.8v6.2h-15.5v-7.2c0-1.4-0.1-2.8-0.2-4.1c-0.1-1.3-0.6-2.4-1.3-3.2c-0.7-0.9-1.9-1.3-3.6-1.3
				c-1.7,0-2.9,0.4-3.7,1.3c-0.8,0.9-1.3,2-1.5,3.3c-0.2,1.3-0.3,2.7-0.3,4.2v33.7c0,1.6,0.1,3,0.4,4.4c0.3,1.3,0.8,2.4,1.6,3.2
				c0.8,0.8,2,1.2,3.5,1.2c1.6,0,2.8-0.4,3.5-1.3c0.7-0.9,1.1-2,1.3-3.3c0.2-1.4,0.3-2.7,0.3-4.2v-7.5h15.5v6.2
				c0,4.1-0.6,7.7-1.8,10.9c-1.2,3.2-3.3,5.7-6.3,7.6S240,96,234.7,96z"/>
			<path class="st1" d="M264.2,95V23.4H280v29h11v-29H307V95H291V63.7h-11V95H264.2z"/>
		</g>
		<g>
			<path class="st1" d="M306.1,95V23.4h11.1l14.7,34.5V23.4H345V95h-10.7l-14.7-37.1V95H306.1z"/>
			<path class="st1" d="M355.8,95V23.4h15.8V95H355.8z"/>
		</g>
		<g transform="translate(0.000000,511.000000) scale(0.100000,-0.100000)">
			<path class="st2" d="M3073.2,4872.3c-4.7-5.9-14.9-24.7-21.1-38.6c-27.9-63.2-47.3-162.8-55.9-287.9
				c-3.4-49.5-5.4-120.9-3.5-125.3c0.8-1.9,2.4-2.5,8.4-3.3c7-0.9,22-5.5,24-7.5c2.2-2.2,5.7-0.9,10.7,4.1
				c10.8,10.8,32,23.5,48.7,29.1c5.6,1.9,10.6,2.6,15.9,2.4c4.2-0.3,8-0.2,8.3,0.1c1.6,1.6,2.2,104.5,0.8,156.6
				c-2.7,104.9-9.5,181.3-21,234.8c-3.8,17.4-9.4,37.5-10.8,39C3077,4876.6,3075.7,4875.6,3073.2,4872.3z"/>
			<path class="st2" d="M3103.1,4457.2c-10,4.3-41.4-10.3-59.4-27.7c-8.4-8.1-8.5-8.5-6-17.7c4.7-16.8,3.7-35.6-3.3-64.2
				c-5.8-23.7-5.6-27.8,2.1-51c8-24.2,9.5-31.6,9.3-44.4c-0.3-16.6-5.8-29.3-19-44c-8.2-9.3-8.8-11-5.1-17.4
				c7.4-12.9,34-29.4,49.7-30.5c14.2-1,19.4,8.1,27.2,47.9c9.2,48.2,13.8,112,12.6,177.8c-0.6,31.6-2.4,61.9-3.8,66.6
				C3106.6,4455.5,3106.2,4455.9,3103.1,4457.2z M3081.9,4192c4.3-10.3-5.2-21.1-15.6-17.4c-4.7,1.7-5.8,2.9-7.9,7.6
				c-1.8,4.3-0.6,10.8,2.6,14c3.1,3.1,9.6,4.4,13.8,2.7C3079.3,4197.1,3080,4196.5,3081.9,4192z"/>
		</g>
	</g>
</g>
</svg>
