<svg width="396" height="118" viewBox="0 0 396 118" fill="none" xmlns="http://www.w3.org/2000/svg">
<g clip-path="url(#clip0_102_21)">
<path d="M395.6 0H0V118H395.6V0Z" fill="#1947A0"/>
<path d="M34 95L25.3 23.4H38.7L43 65.1L48.4 23.5H59L64.7 64.9L69 23.4H82.3L73.6 95H59.8L53.7 51.8L48 95H34Z" fill="white"/>
<path d="M112.2 95V23.4H128V52.7L140 23.4H155.5L142.2 55.7L156.1 95H140L129.7 63.4L128 66.2V95H112.2Z" fill="white"/>
<path d="M182.9 96C177.4 96 173.1 95.1 170 93.3C166.9 91.5 164.7 88.9 163.5 85.4C162.3 82 161.6 77.7 161.6 72.7V23.4H177.2V75.2C177.2 76.7 177.3 78.1 177.6 79.6C177.8 81.1 178.4 82.3 179.1 83.2C179.9 84.1 181.1 84.6 182.8 84.6C184.5 84.6 185.7 84.1 186.5 83.2C187.3 82.3 187.8 81.1 188 79.6C188.2 78.1 188.3 76.7 188.3 75.2V23.4H204V72.8C204 77.8 203.4 82 202.1 85.5C200.8 88.9 198.7 91.6 195.6 93.4C192.6 95.1 188.3 96 182.9 96Z" fill="white"/>
<path d="M234.7 96C229.3 96 225 95 221.8 93C218.6 91 216.4 88.3 215.1 84.7C213.8 81.1 213.2 76.9 213.2 72.1V46.4C213.2 41.5 213.8 37.2 215.1 33.6C216.4 30 218.6 27.3 221.8 25.3C225 23.4 229.2 22.4 234.7 22.4C240 22.4 244.1 23.3 247.1 25C250.1 26.7 252.2 29.2 253.4 32.3C254.6 35.4 255.3 39 255.3 43.1V49.3H239.8V42.1C239.8 40.7 239.7 39.3 239.6 38C239.5 36.7 239 35.6 238.3 34.8C237.6 33.9 236.4 33.5 234.7 33.5C233 33.5 231.8 33.9 231 34.8C230.2 35.7 229.7 36.8 229.5 38.1C229.3 39.4 229.2 40.8 229.2 42.3V76C229.2 77.6 229.3 79 229.6 80.4C229.9 81.7 230.4 82.8 231.2 83.6C232 84.4 233.2 84.8 234.7 84.8C236.3 84.8 237.5 84.4 238.2 83.5C238.9 82.6 239.3 81.5 239.5 80.2C239.7 78.8 239.8 77.5 239.8 76V68.5H255.3V74.7C255.3 78.8 254.7 82.4 253.5 85.6C252.3 88.8 250.2 91.3 247.2 93.2C244.2 95.1 240 96 234.7 96Z" fill="white"/>
<path d="M264.2 95V23.4H280V52.4H291V23.4H307V95H291V63.7H280V95H264.2Z" fill="white"/>
<path d="M306.1 95V23.4H317.2L331.9 57.9V23.4H345V95H334.3L319.6 57.9V95H306.1Z" fill="white"/>
<path d="M355.8 95V23.4H371.6V95H355.8Z" fill="white"/>
<path d="M307.32 23.7701C306.85 24.3601 305.83 26.2401 305.21 27.6301C302.42 33.9501 300.48 43.9101 299.62 56.4201C299.28 61.3701 299.08 68.5101 299.27 68.9501C299.35 69.1401 299.51 69.2001 300.11 69.2801C300.81 69.3701 302.31 69.8301 302.51 70.0301C302.73 70.2501 303.08 70.1201 303.58 69.6201C304.66 68.5401 306.78 67.2701 308.45 66.7101C309.01 66.5201 309.51 66.4501 310.04 66.4701C310.46 66.5001 310.84 66.4901 310.87 66.4601C311.03 66.3001 311.09 56.0101 310.95 50.8001C310.68 40.3101 310 32.6701 308.85 27.3201C308.47 25.5801 307.91 23.5701 307.77 23.4201C307.7 23.3401 307.57 23.4401 307.32 23.7701Z" fill="#1947A0"/>
<path d="M310.31 65.28C309.31 64.85 306.17 66.31 304.37 68.05C303.53 68.86 303.52 68.9 303.77 69.82C304.24 71.5 304.14 73.38 303.44 76.24C302.86 78.61 302.88 79.02 303.65 81.34C304.45 83.76 304.6 84.5 304.58 85.78C304.55 87.44 304 88.71 302.68 90.18C301.86 91.11 301.8 91.28 302.17 91.92C302.91 93.21 305.57 94.86 307.14 94.97C308.56 95.07 309.08 94.16 309.86 90.18C310.78 85.36 311.24 78.98 311.12 72.4C311.06 69.24 310.88 66.21 310.74 65.74C310.66 65.45 310.62 65.41 310.31 65.28ZM308.19 91.8C308.62 92.83 307.67 93.91 306.63 93.54C306.16 93.37 306.05 93.25 305.84 92.78C305.66 92.35 305.78 91.7 306.1 91.38C306.41 91.07 307.06 90.94 307.48 91.11C307.93 91.29 308 91.35 308.19 91.8Z" fill="#1947A0"/>
</g>
<defs>
<clipPath id="clip0_102_21">
<rect width="395.6" height="118" fill="white"/>
</clipPath>
</defs>
</svg>
